# xmcd CD database file
#
# Track frame offsets:
#	150
#	17694
#	33373
#	49608
#	61856
#	79163
#	87068
#	95465
#	110923
#	122157
#	140796
#	154477
#	168346
#	183727
#	194708
#	208105
#	231803
#
# Disc length: 3303 seconds
#
# Revision: 0
# Processed by: cddbd v1.5.2PL0 Copyright (c) Steve Scherf et al.
# Submitted via: CDex 1.70beta2
#
DISCID=f30ce511
DTITLE=Johnny Cash - At San Quentin_Legacy edition_disc_1
DYEAR=2006
DGENRE=Country
TTITLE0=Blue Suede Shoes
TTITLE1=Flowers On The Wall
TTITLE2=The Last Thing On My Mind
TTITLE3=June Carter Cash Talks To The Audience
TTITLE4=Wildwood Flower
TTITLE5=Big River
TTITLE6=I Still Miss Someone
TTITLE7=Wreck of the Old 97
TTITLE8=I Walk the Line
TTITLE9=Medley: The Long Black Veil/Give My Love To Rose
TTITLE10=Folsom Prison Blues
TTITLE11=Orange Blossom Special
TTITLE12=Jackson
TTITLE13=Darlin' Companion
TTITLE14=Break My Mind
TTITLE15=I Don't Know Where I'm Bound
TTITLE16=Starkville City Jail
EXTD=YEAR: 2006
EXTT0=
EXTT1=
EXTT2=
EXTT3=
EXTT4=
EXTT5=
EXTT6=
EXTT7=
EXTT8=
EXTT9=
EXTT10=
EXTT11=
EXTT12=
EXTT13=
EXTT14=
EXTT15=
EXTT16=
PLAYORDER=
